<?xml version="1.0" encoding="UTF-8"?>
<svg width="22px" height="24px" viewBox="0 0 22 24" version="1.1" xmlns="http://www.w3.org/2000/svg" xmlns:xlink="http://www.w3.org/1999/xlink">
    <!-- Generator: Sketch 49 (51002) - http://www.bohemiancoding.com/sketch -->
    <title>icon_basket</title>
    <desc>Created with Sketch.</desc>
    <defs></defs>
    <g id="Symbols" stroke="none" stroke-width="1" fill="none" fill-rule="evenodd">
        <g id="mobile_icon_basket" fill="#FFFFFF" fill-rule="nonzero">
            <path d="M19.0823723,8.30089943 L14.4069193,4.35737573e-16 L12.8121911,1.04006541 L16.9621087,8.30089943 L5.03789127,8.30089943 L9.1878089,1.04006541 L7.64744646,0 L2.91762768,8.30089943 L0,8.30089943 L1.93904448,24 L20.0609555,24 L22,8.30089943 L19.0823723,8.30089943 Z M19.3360791,15.1496321 L14.6243822,15.1496321 L14.6243822,10.263287 L19.9341021,10.263287 L19.3360791,15.1496321 Z M9.1878089,15.1496321 L9.1878089,10.263287 L12.8121911,10.263287 L12.8121911,15.1496321 L9.1878089,15.1496321 Z M12.8121911,17.1120196 L12.8121911,22.0376124 L9.1878089,22.0376124 L9.1878089,17.1120196 L12.8121911,17.1120196 Z M7.37561779,10.263287 L7.37561779,15.1496321 L2.68204283,15.1496321 L2.06589786,10.263287 L7.37561779,10.263287 Z M2.93574959,17.1120196 L7.37561779,17.1120196 L7.37561779,22.0376124 L3.55189456,22.0376124 L2.93574959,17.1120196 Z M14.6243822,22.0376124 L14.6243822,17.1120196 L19.1004942,17.1120196 L18.5024712,22.0376124 L14.6243822,22.0376124 Z" id="icon_basket"></path>
        </g>
    </g>
</svg>