<?xml version="1.0" encoding="UTF-8"?>
<svg width="24px" height="24px" viewBox="0 0 24 24" version="1.1" xmlns="http://www.w3.org/2000/svg" xmlns:xlink="http://www.w3.org/1999/xlink">
    <!-- Generator: Sketch 49 (51002) - http://www.bohemiancoding.com/sketch -->
    <title>Fill 1</title>
    <desc>Created with Sketch.</desc>
    <defs></defs>
    <g id="Symbols" stroke="none" stroke-width="1" fill="none" fill-rule="evenodd">
        <g id="mobile_icon_search" fill="#FFFFFF">
            <g id="Page-1">
                <path d="M15.1789158,13.9670024 L21.6258839,20.4139704 L20.4139704,21.6258839 L13.9670024,15.1789158 C14.4109706,14.8155132 14.8155132,14.4109706 15.1789158,13.9670024 Z M1.71416327,8.57081637 C1.71416327,4.78937219 4.78937219,1.71416327 8.57081637,1.71416327 C12.3522606,1.71416327 15.4274695,4.78937219 15.4274695,8.57081637 C15.4274695,12.3505464 12.3522606,15.4274695 8.57081637,15.4274695 C4.78937219,15.4274695 1.71416327,12.3505464 1.71416327,8.57081637 Z M24,20.3625455 L16.1422756,12.5048211 C16.7593743,11.3220484 17.1416327,9.99700021 17.1416327,8.57081637 C17.1416327,3.83629741 13.3036212,0 8.57081637,0 C3.83629741,0 0,3.83629741 0,8.57081637 C0,13.3036212 3.83629741,17.1416327 8.57081637,17.1416327 C9.99700021,17.1416327 11.3220484,16.7593743 12.5048211,16.1422756 L20.3625455,24 L24,20.3625455 Z" id="Fill-1"></path>
            </g>
        </g>
    </g>
</svg>